<svg height="464pt" viewBox="0 -5 464 464" width="464pt" xmlns="http://www.w3.org/2000/svg"><path d="m432 0h-400c-17.671875 0-32 14.328125-32 32v128c0 17.671875 14.328125 32 32 32h400c17.671875 0 32-14.328125 32-32v-128c0-17.671875-14.328125-32-32-32zm0 0" fill="#3d9ae2"/><path d="m408 160v32h-352v-32c.027344-8.824219 7.175781-15.972656 16-16h320c8.824219.027344 15.972656 7.175781 16 16zm0 0" fill="#d1d3d4"/><path d="m274.34375 322.34375-21.65625 21.65625h-12.6875v-12.6875l21.65625-21.65625-11.3125-11.3125-18.34375 18.34375-18.34375-18.34375-11.3125 11.3125 21.65625 21.65625v12.6875h-12.6875l-21.65625-21.65625-11.3125 11.3125 18.34375 18.34375-18.34375 18.34375 11.3125 11.3125 21.65625-21.65625h12.6875v12.6875l-21.65625 21.65625 11.3125 11.3125 18.34375-18.34375 18.34375 18.34375 11.3125-11.3125-21.65625-21.65625v-12.6875h12.6875l21.65625 21.65625 11.3125-11.3125-18.34375-18.34375 18.34375-18.34375zm0 0" fill="#bddbff"/><path d="m461.65625 381.65625-11.3125-11.3125-21.65625 21.65625h-12.6875v-12.6875l21.65625-21.65625-11.3125-11.3125-18.34375 18.34375-18.34375-18.34375-11.3125 11.3125 21.65625 21.65625v12.6875h-12.6875l-21.65625-21.65625-11.3125 11.3125 18.34375 18.34375-18.34375 18.34375 11.3125 11.3125 21.65625-21.65625h12.6875v12.6875l-21.65625 21.65625 11.3125 11.3125 18.34375-18.34375 18.34375 18.34375 11.3125-11.3125-21.65625-21.65625v-12.6875h12.6875l21.65625 21.65625 11.3125-11.3125-18.34375-18.34375zm0 0" fill="#bddbff"/><path d="m98.34375 370.34375-21.65625 21.65625h-12.6875v-12.6875l21.65625-21.65625-11.3125-11.3125-18.34375 18.34375-18.34375-18.34375-11.3125 11.3125 21.65625 21.65625v12.6875h-12.6875l-21.65625-21.65625-11.3125 11.3125 18.34375 18.34375-18.34375 18.34375 11.3125 11.3125 21.65625-21.65625h12.6875v12.6875l-21.65625 21.65625 11.3125 11.3125 18.34375-18.34375 18.34375 18.34375 11.3125-11.3125-21.65625-21.65625v-12.6875h12.6875l21.65625 21.65625 11.3125-11.3125-18.34375-18.34375 18.34375-18.34375zm0 0" fill="#bddbff"/><g fill="#96c8ef"><path d="m224 216h16v64h-16zm0 0"/><path d="m314.34375 317.65625-24-24c-1.5-1.5-2.34375-3.535156-2.34375-5.65625v-40h16v36.6875l21.65625 21.65625zm0 0"/><path d="m394.34375 333.65625-40-40c-1.5-1.5-2.34375-3.535156-2.34375-5.65625v-72h16v68.6875l37.65625 37.65625zm0 0"/><path d="m288 216h16v16h-16zm0 0"/><path d="m149.65625 317.65625-11.3125-11.3125 21.65625-21.65625v-36.6875h16v40c0 2.121094-.84375 4.15625-2.34375 5.65625zm0 0"/><path d="m69.65625 333.65625-11.3125-11.3125 37.65625-37.65625v-68.6875h16v72c0 2.121094-.84375 4.15625-2.34375 5.65625zm0 0"/><path d="m160 216h16v16h-16zm0 0"/></g><path d="m328 40h80v16h-80zm0 0" fill="#bddbff"/><path d="m296 40h16v16h-16zm0 0" fill="#bddbff"/></svg>