<svg height="512" viewBox="0 0 512 512" width="512" xmlns="http://www.w3.org/2000/svg"><g id="Flat"><circle cx="40" cy="176" fill="#e8732d" r="16"/><path d="m32 198.624v25.376a8 8 0 0 0 2.343 5.657l24 24a8 8 0 0 0 5.657 2.343h72l17.657-9.657-57.657-57.656v-28.687a8 8 0 0 0 -2.343-5.657l-13.657-13.656v-28.687h-16v32a8 8 0 0 0 2.343 5.657l13.657 13.656v28.687a8 8 0 0 0 2.343 5.657l42.343 42.343h-57.373l-19.313-19.313v-22.063a24 24 0 1 0 -16 0zm8-30.624a8 8 0 1 1 -8 8 8.009 8.009 0 0 1 8-8z" fill="#f8bc1e"/><path d="m64 80h16v16h-16z" fill="#e8732d"/><path d="m136 304h-56a8 8 0 0 0 -5.657 2.343l-21.656 21.657h-28.687v16h32a8 8 0 0 0 5.657-2.343l21.656-21.657h41.373l-42.343 42.343a8 8 0 0 0 -2.343 5.657v32h16v-28.687l53.657-53.656z" fill="#f8bc1e"/><path d="m48 272h88v16h-88z" fill="#f8bc1e"/><g fill="#e8732d"><path d="m16 272h16v16h-16z"/><path d="m80 416h16v16h-16z"/><circle cx="472" cy="176" r="16"/></g><path d="m496 176a24 24 0 1 0 -32 22.624v22.063l-19.313 19.313h-57.373l42.343-42.343a8 8 0 0 0 2.343-5.657v-28.687l13.657-13.656a8 8 0 0 0 2.343-5.657v-32h-16v28.687l-13.657 13.656a8 8 0 0 0 -2.343 5.657v28.687l-57.657 57.656 17.657 9.657h72a8 8 0 0 0 5.657-2.343l24-24a8 8 0 0 0 2.343-5.657v-25.376a24.039 24.039 0 0 0 16-22.624zm-16 0a8 8 0 1 1 -8-8 8.009 8.009 0 0 1 8 8z" fill="#f8bc1e"/><path d="m432 80h16v16h-16z" fill="#e8732d"/><path d="m376 304h56a8 8 0 0 1 5.657 2.343l21.656 21.657h28.687v16h-32a8 8 0 0 1 -5.657-2.343l-21.656-21.657h-41.373l42.343 42.343a8 8 0 0 1 2.343 5.657v32h-16v-28.687l-53.657-53.656z" fill="#f8bc1e"/><path d="m376 272h88v16h-88z" fill="#f8bc1e"/><path d="m480 272h16v16h-16z" fill="#e8732d"/><path d="m416 416h16v16h-16z" fill="#e8732d"/><rect fill="#0093b9" height="464" rx="24" width="272" x="120" y="24"/><rect fill="#2ba3c4" height="240" rx="8" transform="matrix(0 1 -1 0 512 0)" width="432" x="40" y="136"/><path d="m232 48h16v16h-16z" fill="#5db9d2"/><path d="m264 48h16v16h-16z" fill="#5db9d2"/><path d="m248 448h16v16h-16z" fill="#5db9d2"/><path d="m272 322.742v-226.742h-32v24h-56l8 32h48v32h-40l8 32h32v106.742a48 48 0 1 0 32 0zm-16 61.258a16 16 0 1 1 16-16 16 16 0 0 1 -16 16z" fill="#f8bc1e"/><path d="m328 152h-16v-56a8 8 0 0 1 2.343-5.657l21.657-21.656v-44.687h16v48a8 8 0 0 1 -2.343 5.657l-21.657 21.656z" fill="#f8bc1e"/><path d="m344 120h16v16h-16z" fill="#e8732d"/><path d="m200 488h-16v-36.687l-21.657-21.656a8 8 0 0 1 -2.343-5.657v-32h16v28.687l21.657 21.656a8 8 0 0 1 2.343 5.657z" fill="#f8bc1e"/><path d="m160 360h16v16h-16z" fill="#e8732d"/></g></svg>